<svg xmlns="http://www.w3.org/2000/svg" viewBox="0 0 64 64">
  <defs>
    <filter id="soft-shadow" x="-25%" y="-25%" width="150%" height="160%">
      <feDropShadow dx="0" dy="5" stdDeviation="4" flood-color="#1e2a23" flood-opacity="0.18"/>
    </filter>
  </defs>
  <rect x="6" y="6" width="52" height="52" rx="18" fill="#fffef8"/>
  <rect x="8" y="8" width="48" height="48" rx="16" fill="#edd156" filter="url(#soft-shadow)"/>
  <path d="M17 18c0-5 4-9 9-9h13c5 0 9 4 9 9v13c0 5-4 9-9 9h-7.5L22 49v-9h-1c-2.8 0-4-2.2-4-5V18z" fill="#2f8f64"/>
  <path d="M24 29.5l6 6.2L43.5 21" fill="none" stroke="#fffef8" stroke-width="5.5" stroke-linecap="round" stroke-linejoin="round"/>
  <path d="M42 11h4.5c3.6 0 6.5 2.9 6.5 6.5V22" fill="none" stroke="#fffef8" stroke-width="3.2" stroke-linecap="round"/>
  <circle cx="48" cy="48" r="7.5" fill="#2f8f64" stroke="#fffef8" stroke-width="3.2"/>
</svg>
