<svg xmlns="http://www.w3.org/2000/svg" viewBox="0 0 100 100" role="img" aria-labelledby="title desc">
  <title id="title">Soft Bubble Check</title>
  <desc id="desc">Minimal yellow tile with a green comment bubble and white check.</desc>
  <defs>
    <linearGradient id="tile" x1="18" y1="12" x2="82" y2="88" gradientUnits="userSpaceOnUse">
      <stop offset="0" stop-color="#FFF4B8"/>
      <stop offset="1" stop-color="#EBCB3E"/>
    </linearGradient>
    <linearGradient id="bubble" x1="26" y1="24" x2="74" y2="76" gradientUnits="userSpaceOnUse">
      <stop offset="0" stop-color="#34A56F"/>
      <stop offset="1" stop-color="#17613F"/>
    </linearGradient>
    <filter id="shadow" x="-20%" y="-20%" width="140%" height="140%">
      <feDropShadow dx="0" dy="8" stdDeviation="6" flood-color="#1F5D3B" flood-opacity=".16"/>
    </filter>
  </defs>
  <rect x="14" y="14" width="72" height="72" rx="22" fill="url(#tile)"/>
  <path filter="url(#shadow)" fill="url(#bubble)" d="M28 37c0-8.3 6.7-15 15-15h18c8.3 0 15 6.7 15 15v13c0 8.3-6.7 15-15 15H49L35.2 76c-1.7 1.3-4.2.1-4.2-2.1V63.4A15 15 0 0 1 28 50V37Z"/>
  <path fill="none" stroke="#FFFBEA" stroke-width="8" stroke-linecap="round" stroke-linejoin="round" d="m40 45 9.6 9.6L64 38"/>
</svg>
